<svg xmlns="http://www.w3.org/2000/svg">
  <symbol viewBox="0 0 16 16" fill="none" id="arrow-up-icon">
    <path
      d="M6 3.34375H12.6562V10H11.3438V5.59375L3.59375 13.3438L2.65625 12.4062L10.4062 4.65625H6V3.34375Z"
      fill="black" />

  </symbol>
  <symbol viewBox="0 0 16 16" fill="none" id="add-icon">
    <path
      d="M10 7.3125V6H7.3125V3.3125H6V6H3.3125V7.3125H6V10H7.3125V7.3125H10ZM1.9375 1.96875C3.25 0.65625 4.82292 0 6.65625 0C8.48958 0 10.0521 0.65625 11.3438 1.96875C12.6562 3.26042 13.3125 4.82292 13.3125 6.65625C13.3125 8.48958 12.6562 10.0625 11.3438 11.375C10.0521 12.6667 8.48958 13.3125 6.65625 13.3125C4.82292 13.3125 3.25 12.6667 1.9375 11.375C0.645833 10.0625 0 8.48958 0 6.65625C0 4.82292 0.645833 3.26042 1.9375 1.96875Z"
      fill="currentColor" />
  </symbol>
  <symbol viewBox="0 0 16 16" fill="none" id="follow-icon">
    <path
      d="M6.46875 10.0938C7.69792 9.59375 8.875 9.34375 10 9.34375C11.125 9.34375 12.2917 9.59375 13.5 10.0938C14.7292 10.5729 15.3438 11.2083 15.3438 12V13.3438H4.65625V12C4.65625 11.2083 5.26042 10.5729 6.46875 10.0938ZM4 6.65625H6V8H4V10H2.65625V8H0.65625V6.65625H2.65625V4.65625H4V6.65625ZM11.875 7.21875C11.3542 7.73958 10.7292 8 10 8C9.27083 8 8.64583 7.73958 8.125 7.21875C7.60417 6.69792 7.34375 6.07292 7.34375 5.34375C7.34375 4.61458 7.60417 3.98958 8.125 3.46875C8.64583 2.92708 9.27083 2.65625 10 2.65625C10.7292 2.65625 11.3542 2.92708 11.875 3.46875C12.3958 3.98958 12.6562 4.61458 12.6562 5.34375C12.6562 6.07292 12.3958 6.69792 11.875 7.21875Z"
      fill="black" />
  </symbol>
  <symbol viewBox="0 0 16 16" fill="none" id="settings-icon">
    <path
      d="M5.34342 8.65625C5.80175 9.11458 6.35384 9.34375 6.99967 9.34375C7.6455 9.34375 8.19759 9.11458 8.65592 8.65625C9.11425 8.19792 9.34342 7.64583 9.34342 7C9.34342 6.35417 9.11425 5.80208 8.65592 5.34375C8.19759 4.88542 7.6455 4.65625 6.99967 4.65625C6.35384 4.65625 5.80175 4.88542 5.34342 5.34375C4.88509 5.80208 4.65592 6.35417 4.65592 7C4.65592 7.64583 4.88509 8.19792 5.34342 8.65625ZM11.9685 7.65625L13.3747 8.75C13.5205 8.85417 13.5414 9 13.4372 9.1875L12.0935 11.5C12.0101 11.6458 11.8747 11.6875 11.6872 11.625L10.0309 10.9688C9.59342 11.2812 9.21842 11.5 8.90592 11.625L8.65592 13.375C8.61425 13.5625 8.51009 13.6562 8.34342 13.6562H5.65592C5.48925 13.6562 5.38509 13.5625 5.34342 13.375L5.09342 11.625C4.69759 11.4583 4.32259 11.2396 3.96842 10.9688L2.31217 11.625C2.12467 11.6875 1.98925 11.6458 1.90592 11.5L0.562175 9.1875C0.458008 9 0.478842 8.85417 0.624675 8.75L2.03092 7.65625C2.01009 7.51042 1.99967 7.29167 1.99967 7C1.99967 6.70833 2.01009 6.48958 2.03092 6.34375L0.624675 5.25C0.478842 5.14583 0.458008 5 0.562175 4.8125L1.90592 2.5C1.98925 2.35417 2.12467 2.3125 2.31217 2.375L3.96842 3.03125C4.40592 2.71875 4.78092 2.5 5.09342 2.375L5.34342 0.625C5.38509 0.4375 5.48925 0.34375 5.65592 0.34375H8.34342C8.51009 0.34375 8.61425 0.4375 8.65592 0.625L8.90592 2.375C9.30175 2.54167 9.67675 2.76042 10.0309 3.03125L11.6872 2.375C11.8747 2.3125 12.0101 2.35417 12.0935 2.5L13.4372 4.8125C13.5414 5 13.5205 5.14583 13.3747 5.25L11.9685 6.34375C11.9893 6.48958 11.9997 6.70833 11.9997 7C11.9997 7.29167 11.9893 7.51042 11.9685 7.65625Z"
      fill="currentColor" />
  </symbol>
  <symbol viewBox="0 0 18 18" fill="none" id="upload-icon">
    <path
      d="M10.5117 6.75H12.7617L9 3.02344L5.23828 6.75H7.48828V9.77344H10.5117V6.75ZM14.5195 4.53516C15.4805 4.60547 16.3008 5.00391 16.9805 5.73047C17.6602 6.43359 18 7.27734 18 8.26172C18 9.29297 17.625 10.1836 16.875 10.9336C16.1484 11.6602 15.2695 12.0234 14.2383 12.0234H4.5C3.25781 12.0234 2.19141 11.5898 1.30078 10.7227C0.433594 9.83203 0 8.76562 0 7.52344C0 6.42188 0.386719 5.4375 1.16016 4.57031C1.95703 3.67969 2.90625 3.17578 4.00781 3.05859C4.5 2.14453 5.19141 1.40625 6.08203 0.84375C6.97266 0.28125 7.94531 0 9 0C10.2656 0 11.4375 0.445313 12.5156 1.33594C13.6172 2.22656 14.2852 3.29297 14.5195 4.53516Z"
      fill="currentColor" />
  </symbol>
  <symbol viewBox="0 0 18 18" fill="none" id="send-icon">
    <path d="M1.34375 14V9.34375L11.3438 8L1.34375 6.65625V2L15.3438 8L1.34375 14Z"
      fill="currentColor" />
  </symbol>
  <symbol viewBox="0 0 18 18" fill="none" id="comment-icon">
    <path
      d="M11.3438 8C11.3438 8.1875 11.2708 8.34375 11.125 8.46875C11 8.59375 10.8438 8.65625 10.6562 8.65625H4L1.34375 11.3438V2C1.34375 1.8125 1.40625 1.65625 1.53125 1.53125C1.65625 1.40625 1.8125 1.34375 2 1.34375H10.6562C10.8438 1.34375 11 1.40625 11.125 1.53125C11.2708 1.65625 11.3438 1.8125 11.3438 2V8ZM14 4C14.1875 4 14.3438 4.0625 14.4688 4.1875C14.5938 4.3125 14.6562 4.46875 14.6562 4.65625V14.6562L12 12H4.65625C4.46875 12 4.3125 11.9375 4.1875 11.8125C4.0625 11.6875 4 11.5312 4 11.3438V10H12.6562V4H14Z"
      fill="currentColor" />
  </symbol>
  <symbol viewBox="0 0 18 18" fill="none" id="like-icon">
    <path
      d="M8.0625 12.375C9.0625 11.4792 9.80208 10.8021 10.2812 10.3438C10.7604 9.88542 11.2812 9.34375 11.8438 8.71875C12.4062 8.09375 12.7917 7.54167 13 7.0625C13.2292 6.58333 13.3438 6.11458 13.3438 5.65625C13.3438 4.98958 13.1146 4.4375 12.6562 4C12.2188 3.5625 11.6667 3.34375 11 3.34375C10.4792 3.34375 9.98958 3.48958 9.53125 3.78125C9.09375 4.07292 8.79167 4.44792 8.625 4.90625H7.375C7.20833 4.44792 6.89583 4.07292 6.4375 3.78125C6 3.48958 5.52083 3.34375 5 3.34375C4.33333 3.34375 3.77083 3.5625 3.3125 4C2.875 4.4375 2.65625 4.98958 2.65625 5.65625C2.65625 6.11458 2.76042 6.58333 2.96875 7.0625C3.19792 7.54167 3.59375 8.09375 4.15625 8.71875C4.71875 9.34375 5.23958 9.88542 5.71875 10.3438C6.19792 10.8021 6.9375 11.4792 7.9375 12.375L8 12.4375L8.0625 12.375ZM11 2C12.0417 2 12.9062 2.35417 13.5938 3.0625C14.3021 3.77083 14.6562 4.63542 14.6562 5.65625C14.6562 6.26042 14.5417 6.85417 14.3125 7.4375C14.0833 8 13.6562 8.63542 13.0312 9.34375C12.4271 10.0521 11.875 10.6458 11.375 11.125C10.875 11.6042 10.0729 12.3438 8.96875 13.3438L8 14.2188L7.03125 13.375C5.59375 12.0833 4.55208 11.1146 3.90625 10.4688C3.28125 9.82292 2.69792 9.0625 2.15625 8.1875C1.61458 7.3125 1.34375 6.46875 1.34375 5.65625C1.34375 4.63542 1.6875 3.77083 2.375 3.0625C3.08333 2.35417 3.95833 2 5 2C6.20833 2 7.20833 2.46875 8 3.40625C8.79167 2.46875 9.79167 2 11 2Z"
      fill="currentColor" />
  </symbol>
  <symbol viewBox="0 0 18 18" fill="none" id="arrow-left-icon">
    <path
      d="M10.2812 4.9375L7.21875 8L10.2812 11.0625L9.34375 12L5.34375 8L9.34375 4L10.2812 4.9375Z"
      fill="currentColor" />
  </symbol>
  <symbol viewBox="0 0 18 18" fill="none" id="three-dots-icon">
    <path
      d="M7.0625 11.0625C7.33333 10.7917 7.64583 10.6562 8 10.6562C8.35417 10.6562 8.66667 10.7917 8.9375 11.0625C9.20833 11.3333 9.34375 11.6458 9.34375 12C9.34375 12.3542 9.20833 12.6667 8.9375 12.9375C8.66667 13.2083 8.35417 13.3438 8 13.3438C7.64583 13.3438 7.33333 13.2083 7.0625 12.9375C6.79167 12.6667 6.65625 12.3542 6.65625 12C6.65625 11.6458 6.79167 11.3333 7.0625 11.0625ZM7.0625 7.0625C7.33333 6.79167 7.64583 6.65625 8 6.65625C8.35417 6.65625 8.66667 6.79167 8.9375 7.0625C9.20833 7.33333 9.34375 7.64583 9.34375 8C9.34375 8.35417 9.20833 8.66667 8.9375 8.9375C8.66667 9.20833 8.35417 9.34375 8 9.34375C7.64583 9.34375 7.33333 9.20833 7.0625 8.9375C6.79167 8.66667 6.65625 8.35417 6.65625 8C6.65625 7.64583 6.79167 7.33333 7.0625 7.0625ZM8.9375 4.9375C8.66667 5.20833 8.35417 5.34375 8 5.34375C7.64583 5.34375 7.33333 5.20833 7.0625 4.9375C6.79167 4.66667 6.65625 4.35417 6.65625 4C6.65625 3.64583 6.79167 3.33333 7.0625 3.0625C7.33333 2.79167 7.64583 2.65625 8 2.65625C8.35417 2.65625 8.66667 2.79167 8.9375 3.0625C9.20833 3.33333 9.34375 3.64583 9.34375 4C9.34375 4.35417 9.20833 4.66667 8.9375 4.9375Z"
      fill="currentColor" />
  </symbol>
</svg>
